<?xml version="1.0" encoding="iso-8859-1"?>
<!-- Uploaded to: SVG Repo, www.svgrepo.com, Generator: SVG Repo Mixer Tools -->
<svg fill="#ffffff" height="200px" width="200px" version="1.1" id="Layer_1" xmlns="http://www.w3.org/2000/svg" xmlns:xlink="http://www.w3.org/1999/xlink" 
	 viewBox="0 0 512 512" xml:space="preserve">
<g>
	<g>
		<path d="M255.777,426.351c-0.145-0.711-0.356-1.415-0.634-2.092c-0.278-0.669-0.623-1.315-1.024-1.916
			c-0.401-0.612-0.868-1.18-1.38-1.692c-0.512-0.512-1.08-0.979-1.692-1.38c-0.601-0.4-1.247-0.746-1.914-1.024
			c-0.679-0.278-1.38-0.501-2.081-0.646c-1.436-0.289-2.916-0.289-4.352,0c-0.712,0.145-1.414,0.367-2.093,0.646
			c-0.668,0.278-1.313,0.624-1.914,1.024c-0.612,0.401-1.18,0.868-1.692,1.38c-0.512,0.512-0.979,1.08-1.38,1.692
			c-0.401,0.601-0.746,1.247-1.024,1.916c-0.278,0.678-0.501,1.38-0.646,2.093c-0.145,0.712-0.211,1.447-0.211,2.17
			c0,0.722,0.067,1.458,0.211,2.182c0.145,0.701,0.367,1.402,0.646,2.081c0.278,0.668,0.623,1.313,1.024,1.914
			c0.401,0.612,0.868,1.18,1.38,1.692c0.512,0.512,1.08,0.979,1.692,1.38c0.601,0.401,1.247,0.746,1.914,1.024
			c0.679,0.278,1.38,0.49,2.093,0.634c0.712,0.145,1.447,0.223,2.17,0.223c0.724,0,1.458-0.078,2.182-0.223
			c0.701-0.145,1.402-0.356,2.081-0.634c0.668-0.278,1.313-0.623,1.914-1.024c0.612-0.401,1.18-0.868,1.692-1.38
			c0.512-0.512,0.979-1.08,1.38-1.692c0.401-0.601,0.746-1.247,1.024-1.914c0.278-0.679,0.49-1.38,0.634-2.081
			c0.145-0.724,0.223-1.459,0.223-2.182C256,427.798,255.922,427.063,255.777,426.351z"/>
	</g>
</g>
<g>
	<g>
		<path d="M256,283.826c-30.687,0-55.652,24.966-55.652,55.652c0,30.687,24.966,55.652,55.652,55.652
			c30.687,0,55.652-24.966,55.652-55.652C311.652,308.792,286.687,283.826,256,283.826z M256,372.87
			c-18.412,0-33.391-14.979-33.391-33.391c0-18.412,14.979-33.391,33.391-33.391c18.412,0,33.391,14.979,33.391,33.391
			C289.391,357.89,274.412,372.87,256,372.87z"/>
	</g>
</g>
<g>
	<g>
		<path d="M500.87,283.826h-77.913h-66.783v-33.391c0-2.198-0.65-4.345-1.87-6.174l-44.522-66.783
			c-2.064-3.096-5.54-4.956-9.261-4.956H267.13v-12.25c25.372-5.171,44.522-27.657,44.522-54.532c0-6.146-4.984-11.13-11.13-11.13
			H267.13v-11.13c0-6.146-4.984-11.13-11.13-11.13c-6.147,0-11.13,4.984-11.13,11.13v11.13h-33.391
			c-6.147,0-11.13,4.984-11.13,11.13c0,26.876,19.15,49.362,44.522,54.532v12.25h-33.391c-3.722,0-7.197,1.86-9.261,4.956
			l-44.522,66.783c-1.219,1.829-1.87,3.976-1.87,6.174v33.391H89.044H11.13c-6.147,0-11.13,4.984-11.13,11.13v111.304
			c0,6.146,4.983,11.13,11.13,11.13h77.913h66.783v11.13c0,6.146,4.983,11.13,11.13,11.13h44.522c6.147,0,11.13-4.984,11.13-11.13
			s-4.983-11.13-11.13-11.13h-33.391v-11.13V294.957v-41.153l39.348-59.021h77.129l39.348,59.021v41.153v111.304v11.13h-55.652
			c-6.146,0-11.13,4.984-11.13,11.13s4.984,11.13,11.13,11.13h66.783c6.146,0,11.13-4.984,11.13-11.13v-11.13h66.783h77.913
			c6.146,0,11.13-4.984,11.13-11.13V294.957C512,288.81,507.016,283.826,500.87,283.826z M77.913,395.13H22.261v-89.043h55.652
			V395.13z M155.826,395.13h-55.652v-89.043h55.652V395.13z M224.515,116.87h62.968C282.89,129.827,270.511,139.13,256,139.13
			C241.488,139.13,229.11,129.827,224.515,116.87z M411.826,395.13h-55.652v-89.043h55.652V395.13z M489.739,395.13h-55.652v-89.043
			h55.652V395.13z"/>
	</g>
</g>
</svg>